<?xml version="1.0" standalone="no"?>
<!DOCTYPE svg PUBLIC "-//W3C//DTD SVG 20010904//EN"
 "http://www.w3.org/TR/2001/REC-SVG-20010904/DTD/svg10.dtd">
<svg version="1.0" xmlns="http://www.w3.org/2000/svg"
 width="256.000000pt" height="256.000000pt" viewBox="0 0 256.000000 256.000000"
 preserveAspectRatio="xMidYMid meet">
<metadata>
Created by potrace 1.14, written by Peter Selinger 2001-2017
</metadata>
<g transform="translate(0.000000,256.000000) scale(0.100000,-0.100000)"
fill="#000000" stroke="none">
<path d="M2445 1899 c-27 -11 -84 -33 -125 -49 -41 -16 -169 -66 -285 -111
-115 -45 -225 -87 -243 -94 l-33 -12 57 -57 c31 -31 55 -58 53 -60 -2 -2 -116
-97 -254 -211 -137 -115 -251 -212 -253 -217 -2 -4 -9 -8 -17 -8 -10 0 -364
358 -399 405 -12 16 6 32 -380 -339 -104 -99 -216 -207 -250 -240 -279 -266
-279 -266 -259 -289 23 -26 56 -62 162 -171 96 -99 74 -100 185 8 34 32 139
133 234 225 96 91 201 192 233 224 l60 58 181 -185 180 -186 87 78 c47 43 154
134 236 202 144 119 338 282 380 318 11 10 41 35 67 55 l46 38 57 -58 57 -57
54 139 c30 77 58 149 63 160 5 11 42 103 81 205 40 102 78 200 86 218 16 38
10 40 -61 11z"/>
</g>
</svg>
